<svg width="400" height="400" viewBox="0 0 400 400" fill="none" xmlns="http://www.w3.org/2000/svg">
<rect width="400" height="400" rx="16" fill="black"/>
<rect x="40" y="150" width="100" height="100" rx="16" fill="#FFFF00"/>
<rect x="40" y="40" width="100" height="100" rx="16" fill="#FFFF00"/>
<path d="M40 15H140C140 23.2843 133.284 30 125 30H55C46.7157 30 40 23.2843 40 15Z" fill="#FF0000"/>
<path d="M140 385H40C40 376.716 46.7157 370 55 370H125C133.284 370 140 376.716 140 385Z" fill="#00A3FF"/>
<path d="M15 140L15 40C23.2843 40 30 46.7157 30 55L30 125C30 133.284 23.2843 140 15 140Z" fill="#00FF1A"/>
<path d="M385 40V140C376.716 140 370 133.284 370 125V55C370 46.7157 376.716 40 385 40Z" fill="#00A3FF"/>
<path d="M15 250L15 150C23.2843 150 30 156.716 30 165L30 235C30 243.284 23.2843 250 15 250Z" fill="#FF9900"/>
<path d="M385 150V250C376.716 250 370 243.284 370 235V165C370 156.716 376.716 150 385 150Z" fill="#FF0000"/>
<path d="M15 360L15 260C23.2843 260 30 266.716 30 275L30 345C30 353.284 23.2843 360 15 360Z" fill="#FF9900"/>
<path d="M385 260V360C376.716 360 370 353.284 370 345V275C370 266.716 376.716 260 385 260Z" fill="#FF9900"/>
<path d="M150 15H250C250 23.2843 243.284 30 235 30H165C156.716 30 150 23.2843 150 15Z" fill="#00FF1A"/>
<path d="M250 385H150C150 376.716 156.716 370 165 370H235C243.284 370 250 376.716 250 385Z" fill="#00A3FF"/>
<path d="M260 15H360C360 23.2843 353.284 30 345 30H275C266.716 30 260 23.2843 260 15Z" fill="#FF0000"/>
<path d="M360 385H260C260 376.716 266.716 370 275 370H345C353.284 370 360 376.716 360 385Z" fill="#00FF1A"/>
<rect x="150" y="150" width="100" height="100" rx="16" fill="#FFFF00"/>
<rect x="150" y="40" width="100" height="100" rx="16" fill="#FFFF00"/>
<rect x="260" y="150" width="100" height="100" rx="16" fill="#FFFF00"/>
<rect x="260" y="40" width="100" height="100" rx="16" fill="#FFFF00"/>
<rect x="40" y="260" width="100" height="100" rx="16" fill="#FFFF00"/>
<rect x="150" y="260" width="100" height="100" rx="16" fill="#FFFF00"/>
<rect x="260" y="260" width="100" height="100" rx="16" fill="#FFFF00"/>
<path d="M292.121 92.1213C293.293 90.9497 293.293 89.0503 292.121 87.8787L273.029 68.7868C271.858 67.6152 269.958 67.6152 268.787 68.7868C267.615 69.9584 267.615 71.8579 268.787 73.0294L285.757 90L268.787 106.971C267.615 108.142 267.615 110.042 268.787 111.213C269.958 112.385 271.858 112.385 273.029 111.213L292.121 92.1213ZM90 93H290V87H90V93Z" fill="black"/>
<path d="M307.879 292.121C309.05 293.293 310.95 293.293 312.121 292.121L331.213 273.029C332.385 271.858 332.385 269.958 331.213 268.787C330.042 267.615 328.142 267.615 326.971 268.787L310 285.757L293.029 268.787C291.858 267.615 289.958 267.615 288.787 268.787C287.615 269.958 287.615 271.858 288.787 273.029L307.879 292.121ZM307 90V290H313V90H307Z" fill="black"/>
<path d="M108.475 105.475C106.818 105.475 105.475 106.818 105.475 108.475V135.475C105.475 137.131 106.818 138.475 108.475 138.475C110.131 138.475 111.475 137.131 111.475 135.475L111.475 111.475L135.475 111.475C137.131 111.475 138.475 110.131 138.475 108.475C138.475 106.818 137.131 105.475 135.475 105.475H108.475ZM312.121 307.879L110.596 106.353L106.353 110.596L307.879 312.121L312.121 307.879Z" fill="black"/>
</svg>
