<svg width="400" height="400" viewBox="0 0 400 400" fill="none" xmlns="http://www.w3.org/2000/svg">
<rect width="400" height="400" rx="16" fill="black"/>
<rect x="40" y="150" width="100" height="100" rx="16" fill="#FFFF00"/>
<rect x="40" y="40" width="100" height="100" rx="16" fill="#FFFF00"/>
<path d="M40 15H140C140 23.2843 133.284 30 125 30H55C46.7157 30 40 23.2843 40 15Z" fill="#FF0000"/>
<path d="M140 385H40C40 376.716 46.7157 370 55 370H125C133.284 370 140 376.716 140 385Z" fill="#00A3FF"/>
<path d="M15 140L15 40C23.2843 40 30 46.7157 30 55L30 125C30 133.284 23.2843 140 15 140Z" fill="#00FF1A"/>
<path d="M385 40V140C376.716 140 370 133.284 370 125V55C370 46.7157 376.716 40 385 40Z" fill="#00A3FF"/>
<path d="M15 250L15 150C23.2843 150 30 156.716 30 165L30 235C30 243.284 23.2843 250 15 250Z" fill="#FF9900"/>
<path d="M385 150V250C376.716 250 370 243.284 370 235V165C370 156.716 376.716 150 385 150Z" fill="#FF0000"/>
<path d="M15 360L15 260C23.2843 260 30 266.716 30 275L30 345C30 353.284 23.2843 360 15 360Z" fill="#FF9900"/>
<path d="M385 260V360C376.716 360 370 353.284 370 345V275C370 266.716 376.716 260 385 260Z" fill="#FF9900"/>
<path d="M150 15H250C250 23.2843 243.284 30 235 30H165C156.716 30 150 23.2843 150 15Z" fill="#00FF1A"/>
<path d="M250 385H150C150 376.716 156.716 370 165 370H235C243.284 370 250 376.716 250 385Z" fill="#00A3FF"/>
<path d="M260 15H360C360 23.2843 353.284 30 345 30H275C266.716 30 260 23.2843 260 15Z" fill="#FF0000"/>
<path d="M360 385H260C260 376.716 266.716 370 275 370H345C353.284 370 360 376.716 360 385Z" fill="#00FF1A"/>
<rect x="150" y="150" width="100" height="100" rx="16" fill="#FFFF00"/>
<rect x="150" y="40" width="100" height="100" rx="16" fill="#FFFF00"/>
<rect x="260" y="150" width="100" height="100" rx="16" fill="#FFFF00"/>
<rect x="260" y="40" width="100" height="100" rx="16" fill="#FFFF00"/>
<rect x="40" y="260" width="100" height="100" rx="16" fill="#FFFF00"/>
<rect x="150" y="260" width="100" height="100" rx="16" fill="#FFFF00"/>
<rect x="260" y="260" width="100" height="100" rx="16" fill="#FFFF00"/>
<path d="M291.768 91.7678C292.744 90.7915 292.744 89.2085 291.768 88.2322L275.858 72.3223C274.882 71.346 273.299 71.346 272.322 72.3223C271.346 73.2986 271.346 74.8816 272.322 75.8579L286.464 90L272.322 104.142C271.346 105.118 271.346 106.701 272.322 107.678C273.299 108.654 274.882 108.654 275.858 107.678L291.768 91.7678ZM90 92.5H290V87.5H90V92.5Z" fill="black"/>
<path d="M308.232 291.768C309.209 292.744 310.791 292.744 311.768 291.768L327.678 275.858C328.654 274.882 328.654 273.299 327.678 272.322C326.701 271.346 325.118 271.346 324.142 272.322L310 286.464L295.858 272.322C294.882 271.346 293.299 271.346 292.322 272.322C291.346 273.299 291.346 274.882 292.322 275.858L308.232 291.768ZM307.5 90V290H312.5V90H307.5Z" fill="black"/>
<path d="M111.303 108.803C109.922 108.803 108.803 109.922 108.803 111.303L108.803 133.803C108.803 135.184 109.922 136.303 111.303 136.303C112.684 136.303 113.803 135.184 113.803 133.803L113.803 113.803L133.803 113.803C135.184 113.803 136.303 112.684 136.303 111.303C136.303 109.922 135.184 108.803 133.803 108.803L111.303 108.803ZM311.768 308.232L113.071 109.535L109.535 113.071L308.232 311.768L311.768 308.232Z" fill="black"/>
</svg>
