<svg width="400" height="400" viewBox="0 0 400 400" fill="none" xmlns="http://www.w3.org/2000/svg">
<rect width="400" height="400" rx="16" fill="black"/>
<rect x="40" y="150" width="100" height="100" rx="16" fill="#FFFF00"/>
<rect x="40" y="40" width="100" height="100" rx="16" fill="#FFFF00"/>
<path d="M40 15H140C140 23.2843 133.284 30 125 30H55C46.7157 30 40 23.2843 40 15Z" fill="#00A3FF"/>
<path d="M140 385H40C40 376.716 46.7157 370 55 370H125C133.284 370 140 376.716 140 385Z" fill="#00A3FF"/>
<path d="M15 140L15 40C23.2843 40 30 46.7157 30 55L30 125C30 133.284 23.2843 140 15 140Z" fill="#FF0000"/>
<path d="M385 40V140C376.716 140 370 133.284 370 125V55C370 46.7157 376.716 40 385 40Z" fill="#00FF1A"/>
<path d="M15 250L15 150C23.2843 150 30 156.716 30 165L30 235C30 243.284 23.2843 250 15 250Z" fill="#FF9900"/>
<path d="M385 150V250C376.716 250 370 243.284 370 235V165C370 156.716 376.716 150 385 150Z" fill="#FF0000"/>
<path d="M15 360L15 260C23.2843 260 30 266.716 30 275L30 345C30 353.284 23.2843 360 15 360Z" fill="#FF9900"/>
<path d="M385 260V360C376.716 360 370 353.284 370 345V275C370 266.716 376.716 260 385 260Z" fill="#00FF1A"/>
<path d="M150 15H250C250 23.2843 243.284 30 235 30H165C156.716 30 150 23.2843 150 15Z" fill="#00FF1A"/>
<path d="M250 385H150C150 376.716 156.716 370 165 370H235C243.284 370 250 376.716 250 385Z" fill="#00A3FF"/>
<path d="M260 15H360C360 23.2843 353.284 30 345 30H275C266.716 30 260 23.2843 260 15Z" fill="#FF9900"/>
<path d="M360 385H260C260 376.716 266.716 370 275 370H345C353.284 370 360 376.716 360 385Z" fill="#FF0000"/>
<rect x="150" y="150" width="100" height="100" rx="16" fill="#FFFF00"/>
<rect x="150" y="40" width="100" height="100" rx="16" fill="#FFFF00"/>
<rect x="260" y="150" width="100" height="100" rx="16" fill="#FFFF00"/>
<rect x="260" y="40" width="100" height="100" rx="16" fill="#FFFF00"/>
<rect x="40" y="260" width="100" height="100" rx="16" fill="#FFFF00"/>
<rect x="150" y="260" width="100" height="100" rx="16" fill="#FFFF00"/>
<rect x="260" y="260" width="100" height="100" rx="16" fill="#FFFF00"/>
<path d="M291.525 295.525C293.182 295.525 294.525 294.182 294.525 292.525V265.525C294.525 263.869 293.182 262.525 291.525 262.525C289.869 262.525 288.525 263.869 288.525 265.525V289.525H264.525C262.869 289.525 261.525 290.869 261.525 292.525C261.525 294.182 262.869 295.525 264.525 295.525H291.525ZM87.8787 93.1213L289.404 294.647L293.647 290.404L92.1213 88.8787L87.8787 93.1213Z" fill="black"/>
<path d="M312.121 107.879C310.95 106.707 309.05 106.707 307.879 107.879L288.787 126.971C287.615 128.142 287.615 130.042 288.787 131.213C289.958 132.385 291.858 132.385 293.029 131.213L310 114.243L326.971 131.213C328.142 132.385 330.042 132.385 331.213 131.213C332.385 130.042 332.385 128.142 331.213 126.971L312.121 107.879ZM313 310L313 110L307 110L307 310L313 310Z" fill="black"/>
<path d="M107.879 87.8787C106.707 89.0503 106.707 90.9497 107.879 92.1213L126.971 111.213C128.142 112.385 130.042 112.385 131.213 111.213C132.385 110.042 132.385 108.142 131.213 106.971L114.243 90L131.213 73.0294C132.385 71.8579 132.385 69.9584 131.213 68.7868C130.042 67.6152 128.142 67.6152 126.971 68.7868L107.879 87.8787ZM310 87L110 87V93L310 93V87Z" fill="black"/>
</svg>
