<svg width="400" height="400" viewBox="0 0 400 400" fill="none" xmlns="http://www.w3.org/2000/svg">
<rect width="400" height="400" rx="16" fill="black"/>
<rect x="40" y="150" width="100" height="100" rx="16" fill="#FFFF00"/>
<rect x="40" y="40" width="100" height="100" rx="16" fill="#FFFF00"/>
<path d="M40 15H140V15C140 23.2843 133.284 30 125 30H55C46.7157 30 40 23.2843 40 15V15Z" fill="#00FF1A"/>
<path d="M140 385H40V385C40 376.716 46.7157 370 55 370H125C133.284 370 140 376.716 140 385V385Z" fill="#00FF1A"/>
<path d="M15 140L15 40V40C23.2843 40 30 46.7157 30 55L30 125C30 133.284 23.2843 140 15 140V140Z" fill="#FF9900"/>
<path d="M385 40V140V140C376.716 140 370 133.284 370 125V55C370 46.7157 376.716 40 385 40V40Z" fill="#FF9900"/>
<path d="M15 250L15 150V150C23.2843 150 30 156.716 30 165L30 235C30 243.284 23.2843 250 15 250V250Z" fill="#00FF1A"/>
<path d="M385 150V250V250C376.716 250 370 243.284 370 235V165C370 156.716 376.716 150 385 150V150Z" fill="#00A3FF"/>
<path d="M15 360L15 260V260C23.2843 260 30 266.716 30 275L30 345C30 353.284 23.2843 360 15 360V360Z" fill="#FF0000"/>
<path d="M385 260V360V360C376.716 360 370 353.284 370 345V275C370 266.716 376.716 260 385 260V260Z" fill="#FF0000"/>
<path d="M150 15H250V15C250 23.2843 243.284 30 235 30H165C156.716 30 150 23.2843 150 15V15Z" fill="#FF0000"/>
<path d="M250 385H150V385C150 376.716 156.716 370 165 370H235C243.284 370 250 376.716 250 385V385Z" fill="#FF9900"/>
<path d="M260 15H360V15C360 23.2843 353.284 30 345 30H275C266.716 30 260 23.2843 260 15V15Z" fill="#00A3FF"/>
<path d="M360 385H260V385C260 376.716 266.716 370 275 370H345C353.284 370 360 376.716 360 385V385Z" fill="#00A3FF"/>
<rect x="150" y="150" width="100" height="100" rx="16" fill="#FFFF00"/>
<rect x="150" y="40" width="100" height="100" rx="16" fill="#FFFF00"/>
<rect x="260" y="150" width="100" height="100" rx="16" fill="#FFFF00"/>
<rect x="260" y="40" width="100" height="100" rx="16" fill="#FFFF00"/>
<rect x="40" y="260" width="100" height="100" rx="16" fill="#FFFF00"/>
<rect x="150" y="260" width="100" height="100" rx="16" fill="#FFFF00"/>
<rect x="260" y="260" width="100" height="100" rx="16" fill="#FFFF00"/>
<path d="M92.1213 87.8787C90.9497 86.7071 89.0503 86.7071 87.8787 87.8787L68.7868 106.971C67.6152 108.142 67.6152 110.042 68.7868 111.213C69.9584 112.385 71.8579 112.385 73.0294 111.213L90 94.2426L106.971 111.213C108.142 112.385 110.042 112.385 111.213 111.213C112.385 110.042 112.385 108.142 111.213 106.971L92.1213 87.8787ZM87.8787 312.121C89.0503 313.293 90.9497 313.293 92.1213 312.121L111.213 293.029C112.385 291.858 112.385 289.958 111.213 288.787C110.042 287.615 108.142 287.615 106.971 288.787L90 305.757L73.0294 288.787C71.8579 287.615 69.9584 287.615 68.7868 288.787C67.6152 289.958 67.6152 291.858 68.7868 293.029L87.8787 312.121ZM87 90L87 310H93L93 90H87Z" fill="black"/>
<path d="M312.121 87.8787C310.95 86.7071 309.05 86.7071 307.879 87.8787L288.787 106.971C287.615 108.142 287.615 110.042 288.787 111.213C289.958 112.385 291.858 112.385 293.029 111.213L310 94.2426L326.971 111.213C328.142 112.385 330.042 112.385 331.213 111.213C332.385 110.042 332.385 108.142 331.213 106.971L312.121 87.8787ZM307.879 312.121C309.05 313.293 310.95 313.293 312.121 312.121L331.213 293.029C332.385 291.858 332.385 289.958 331.213 288.787C330.042 287.615 328.142 287.615 326.971 288.787L310 305.757L293.029 288.787C291.858 287.615 289.958 287.615 288.787 288.787C287.615 289.958 287.615 291.858 288.787 293.029L307.879 312.121ZM307 90V310H313V90H307Z" fill="black"/>
</svg>
