<svg width="400" height="400" viewBox="0 0 400 400" fill="none" xmlns="http://www.w3.org/2000/svg">
<rect width="400" height="400" rx="16" fill="black"/>
<rect x="40" y="150" width="100" height="100" rx="16" fill="#FFFF00"/>
<rect x="40" y="40" width="100" height="100" rx="16" fill="#FFFF00"/>
<path d="M40 15H140V15C140 23.2843 133.284 30 125 30H55C46.7157 30 40 23.2843 40 15V15Z" fill="#00FF1A"/>
<path d="M140 385H40V385C40 376.716 46.7157 370 55 370H125C133.284 370 140 376.716 140 385V385Z" fill="#00A3FF"/>
<path d="M15 140L15 40V40C23.2843 40 30 46.7157 30 55L30 125C30 133.284 23.2843 140 15 140V140Z" fill="#FF9900"/>
<path d="M385 40V140V140C376.716 140 370 133.284 370 125V55C370 46.7157 376.716 40 385 40V40Z" fill="#FF0000"/>
<path d="M15 250L15 150V150C23.2843 150 30 156.716 30 165L30 235C30 243.284 23.2843 250 15 250V250Z" fill="#FF0000"/>
<path d="M385 150V250V250C376.716 250 370 243.284 370 235V165C370 156.716 376.716 150 385 150V150Z" fill="#FF9900"/>
<path d="M15 360L15 260V260C23.2843 260 30 266.716 30 275L30 345C30 353.284 23.2843 360 15 360V360Z" fill="#FF9900"/>
<path d="M385 260V360V360C376.716 360 370 353.284 370 345V275C370 266.716 376.716 260 385 260V260Z" fill="#FF0000"/>
<path d="M150 15H250V15C250 23.2843 243.284 30 235 30H165C156.716 30 150 23.2843 150 15V15Z" fill="#00A3FF"/>
<path d="M250 385H150V385C150 376.716 156.716 370 165 370H235C243.284 370 250 376.716 250 385V385Z" fill="#00FF1A"/>
<path d="M260 15H360V15C360 23.2843 353.284 30 345 30H275C266.716 30 260 23.2843 260 15V15Z" fill="#00FF1A"/>
<path d="M360 385H260V385C260 376.716 266.716 370 275 370H345C353.284 370 360 376.716 360 385V385Z" fill="#00A3FF"/>
<rect x="150" y="150" width="100" height="100" rx="16" fill="#FFFF00"/>
<rect x="150" y="40" width="100" height="100" rx="16" fill="#FFFF00"/>
<rect x="260" y="150" width="100" height="100" rx="16" fill="#FFFF00"/>
<rect x="260" y="40" width="100" height="100" rx="16" fill="#FFFF00"/>
<rect x="40" y="260" width="100" height="100" rx="16" fill="#FFFF00"/>
<rect x="150" y="260" width="100" height="100" rx="16" fill="#FFFF00"/>
<rect x="260" y="260" width="100" height="100" rx="16" fill="#FFFF00"/>
<path d="M202.121 87.8787C200.95 86.7071 199.05 86.7071 197.879 87.8787L178.787 106.971C177.615 108.142 177.615 110.042 178.787 111.213C179.958 112.385 181.858 112.385 183.029 111.213L200 94.2426L216.971 111.213C218.142 112.385 220.042 112.385 221.213 111.213C222.385 110.042 222.385 108.142 221.213 106.971L202.121 87.8787ZM197.879 312.121C199.05 313.293 200.95 313.293 202.121 312.121L221.213 293.029C222.385 291.858 222.385 289.958 221.213 288.787C220.042 287.615 218.142 287.615 216.971 288.787L200 305.757L183.029 288.787C181.858 287.615 179.958 287.615 178.787 288.787C177.615 289.958 177.615 291.858 178.787 293.029L197.879 312.121ZM197 90V310H203V90H197Z" fill="black"/>
<path d="M87.8787 197.879C86.7071 199.05 86.7071 200.95 87.8787 202.121L106.971 221.213C108.142 222.385 110.042 222.385 111.213 221.213C112.385 220.042 112.385 218.142 111.213 216.971L94.2426 200L111.213 183.029C112.385 181.858 112.385 179.958 111.213 178.787C110.042 177.615 108.142 177.615 106.971 178.787L87.8787 197.879ZM312.121 202.121C313.293 200.95 313.293 199.05 312.121 197.879L293.029 178.787C291.858 177.615 289.958 177.615 288.787 178.787C287.615 179.958 287.615 181.858 288.787 183.029L305.757 200L288.787 216.971C287.615 218.142 287.615 220.042 288.787 221.213C289.958 222.385 291.858 222.385 293.029 221.213L312.121 202.121ZM90 203H310V197H90V203Z" fill="black"/>
</svg>
