<svg width="400" height="400" viewBox="0 0 400 400" fill="none" xmlns="http://www.w3.org/2000/svg">
<rect x="400" y="400" width="400" height="400" rx="16" transform="rotate(-180 400 400)" fill="black"/>
<rect x="360" y="250" width="100" height="100" rx="16" transform="rotate(-180 360 250)" fill="#FFFF00"/>
<rect x="360" y="360" width="100" height="100" rx="16" transform="rotate(-180 360 360)" fill="#FFFF00"/>
<path d="M360 385H260C260 376.716 266.716 370 275 370H345C353.284 370 360 376.716 360 385Z" fill="#00FF1A"/>
<path d="M260 15L360 15C360 23.2843 353.284 30 345 30L275 30C266.716 30 260 23.2843 260 15Z" fill="#00A3FF"/>
<path d="M385 260V360C376.716 360 370 353.284 370 345V275C370 266.716 376.716 260 385 260Z" fill="#FF9900"/>
<path d="M15 360L15 260C23.2843 260 30 266.716 30 275L30 345C30 353.284 23.2843 360 15 360Z" fill="#00A3FF"/>
<path d="M385 150V250C376.716 250 370 243.284 370 235V165C370 156.716 376.716 150 385 150Z" fill="#FF9900"/>
<path d="M15 250L15 150C23.2843 150 30 156.716 30 165L30 235C30 243.284 23.2843 250 15 250Z" fill="#00FF1A"/>
<path d="M385 40V140C376.716 140 370 133.284 370 125V55C370 46.7157 376.716 40 385 40Z" fill="#FF9900"/>
<path d="M15 140L15 40C23.2843 40 30 46.7157 30 55L30 125C30 133.284 23.2843 140 15 140Z" fill="#00FF1A"/>
<path d="M250 385H150C150 376.716 156.716 370 165 370H235C243.284 370 250 376.716 250 385Z" fill="#FF0000"/>
<path d="M150 15L250 15C250 23.2843 243.284 30 235 30L165 30C156.716 30 150 23.2843 150 15Z" fill="#00A3FF"/>
<path d="M140 385H40C40 376.716 46.7157 370 55 370H125C133.284 370 140 376.716 140 385Z" fill="#FF0000"/>
<path d="M40 15L140 15C140 23.2843 133.284 30 125 30L55 30C46.7157 30 40 23.2843 40 15Z" fill="#FF0000"/>
<rect x="250" y="250" width="100" height="100" rx="16" transform="rotate(-180 250 250)" fill="#FFFF00"/>
<rect x="250" y="360" width="100" height="100" rx="16" transform="rotate(-180 250 360)" fill="#FFFF00"/>
<rect x="140" y="250" width="100" height="100" rx="16" transform="rotate(-180 140 250)" fill="#FFFF00"/>
<rect x="140" y="360" width="100" height="100" rx="16" transform="rotate(-180 140 360)" fill="#FFFF00"/>
<rect x="360" y="140" width="100" height="100" rx="16" transform="rotate(-180 360 140)" fill="#FFFF00"/>
<rect x="250" y="140" width="100" height="100" rx="16" transform="rotate(-180 250 140)" fill="#FFFF00"/>
<rect x="140" y="140" width="100" height="100" rx="16" transform="rotate(-180 140 140)" fill="#FFFF00"/>
<path d="M92.1213 87.8787C90.9497 86.7071 89.0503 86.7071 87.8787 87.8787L68.7868 106.971C67.6152 108.142 67.6152 110.042 68.7868 111.213C69.9584 112.385 71.8579 112.385 73.0294 111.213L90 94.2426L106.971 111.213C108.142 112.385 110.042 112.385 111.213 111.213C112.385 110.042 112.385 108.142 111.213 106.971L92.1213 87.8787ZM87.8787 312.121C89.0503 313.293 90.9497 313.293 92.1213 312.121L111.213 293.029C112.385 291.858 112.385 289.958 111.213 288.787C110.042 287.615 108.142 287.615 106.971 288.787L90 305.757L73.0294 288.787C71.8579 287.615 69.9584 287.615 68.7868 288.787C67.6152 289.958 67.6152 291.858 68.7868 293.029L87.8787 312.121ZM87 90L87 310H93L93 90H87Z" fill="black"/>
<path d="M100 207C98.3431 207 97 208.343 97 210V237C97 238.657 98.3431 240 100 240C101.657 240 103 238.657 103 237V213H127C128.657 213 130 211.657 130 210C130 208.343 128.657 207 127 207H100ZM199.702 312.702C201.359 312.702 202.702 311.359 202.702 309.702V282.702C202.702 281.045 201.359 279.702 199.702 279.702C198.045 279.702 196.702 281.045 196.702 282.702V306.702H172.702C171.045 306.702 169.702 308.045 169.702 309.702C169.702 311.359 171.045 312.702 172.702 312.702H199.702ZM97.8787 212.121L197.581 311.823L201.823 307.581L102.121 207.879L97.8787 212.121Z" fill="black"/>
</svg>
