<svg width="400" height="400" viewBox="0 0 400 400" fill="none" xmlns="http://www.w3.org/2000/svg">
<rect width="400" height="400" rx="16" fill="black"/>
<rect x="40" y="150" width="100" height="100" rx="16" fill="#FFFF00"/>
<rect x="40" y="40" width="100" height="100" rx="16" fill="#FFFF00"/>
<path d="M40 15H140V15C140 23.2843 133.284 30 125 30H55C46.7157 30 40 23.2843 40 15V15Z" fill="#00FF1A"/>
<path d="M140 385H40V385C40 376.716 46.7157 370 55 370H125C133.284 370 140 376.716 140 385V385Z" fill="#00FF1A"/>
<path d="M15 140L15 40V40C23.2843 40 30 46.7157 30 55L30 125C30 133.284 23.2843 140 15 140V140Z" fill="#FF9900"/>
<path d="M385 40V140V140C376.716 140 370 133.284 370 125V55C370 46.7157 376.716 40 385 40V40Z" fill="#FF9900"/>
<path d="M15 250L15 150V150C23.2843 150 30 156.716 30 165L30 235C30 243.284 23.2843 250 15 250V250Z" fill="#FF0000"/>
<path d="M385 150V250V250C376.716 250 370 243.284 370 235V165C370 156.716 376.716 150 385 150V150Z" fill="#FF9900"/>
<path d="M15 360L15 260V260C23.2843 260 30 266.716 30 275L30 345C30 353.284 23.2843 360 15 360V360Z" fill="#FF0000"/>
<path d="M385 260V360V360C376.716 360 370 353.284 370 345V275C370 266.716 376.716 260 385 260V260Z" fill="#FF0000"/>
<path d="M150 15H250V15C250 23.2843 243.284 30 235 30H165C156.716 30 150 23.2843 150 15V15Z" fill="#00FF1A"/>
<path d="M250 385H150V385C150 376.716 156.716 370 165 370H235C243.284 370 250 376.716 250 385V385Z" fill="#00A3FF"/>
<path d="M260 15H360V15C360 23.2843 353.284 30 345 30H275C266.716 30 260 23.2843 260 15V15Z" fill="#00A3FF"/>
<path d="M360 385H260V385C260 376.716 266.716 370 275 370H345C353.284 370 360 376.716 360 385V385Z" fill="#00A3FF"/>
<rect x="150" y="150" width="100" height="100" rx="16" fill="#FFFF00"/>
<rect x="150" y="40" width="100" height="100" rx="16" fill="#FFFF00"/>
<rect x="260" y="150" width="100" height="100" rx="16" fill="#FFFF00"/>
<rect x="260" y="40" width="100" height="100" rx="16" fill="#FFFF00"/>
<rect x="40" y="260" width="100" height="100" rx="16" fill="#FFFF00"/>
<rect x="150" y="260" width="100" height="100" rx="16" fill="#FFFF00"/>
<rect x="260" y="260" width="100" height="100" rx="16" fill="#FFFF00"/>
<path d="M87.8787 197.879C86.7071 199.05 86.7071 200.95 87.8787 202.121L106.971 221.213C108.142 222.385 110.042 222.385 111.213 221.213C112.385 220.042 112.385 218.142 111.213 216.971L94.2426 200L111.213 183.029C112.385 181.858 112.385 179.958 111.213 178.787C110.042 177.615 108.142 177.615 106.971 178.787L87.8787 197.879ZM312.121 202.121C313.293 200.95 313.293 199.05 312.121 197.879L293.029 178.787C291.858 177.615 289.958 177.615 288.787 178.787C287.615 179.958 287.615 181.858 288.787 183.029L305.757 200L288.787 216.971C287.615 218.142 287.615 220.042 288.787 221.213C289.958 222.385 291.858 222.385 293.029 221.213L312.121 202.121ZM90 203L310 203V197L90 197V203Z" fill="black"/>
<path d="M87 310C87 311.657 88.3431 313 90 313H117C118.657 313 120 311.657 120 310C120 308.343 118.657 307 117 307H93V283C93 281.343 91.6569 280 90 280C88.3431 280 87 281.343 87 283V310ZM313 90C313 88.3431 311.657 87 310 87H283C281.343 87 280 88.3431 280 90C280 91.6569 281.343 93 283 93L307 93V117C307 118.657 308.343 120 310 120C311.657 120 313 118.657 313 117V90ZM92.1213 312.121L312.121 92.1213L307.879 87.8787L87.8787 307.879L92.1213 312.121Z" fill="black"/>
</svg>
