<svg width="400" height="400" viewBox="0 0 400 400" fill="none" xmlns="http://www.w3.org/2000/svg">
<rect width="400" height="400" rx="16" transform="matrix(-1 0 0 1 400 0)" fill="black"/>
<rect width="100" height="100" rx="16" transform="matrix(-1 0 0 1 360 150)" fill="#FFFF00"/>
<rect width="100" height="100" rx="16" transform="matrix(-1 0 0 1 360 40)" fill="#FFFF00"/>
<path d="M360 15H260V15C260 23.2843 266.716 30 275 30H345C353.284 30 360 23.2843 360 15V15Z" fill="#00FF1A"/>
<path d="M260 385H360V385C360 376.716 353.284 370 345 370H275C266.716 370 260 376.716 260 385V385Z" fill="#00FF1A"/>
<path d="M385 140V40V40C376.716 40 370 46.7157 370 55V125C370 133.284 376.716 140 385 140V140Z" fill="#FF9900"/>
<path d="M15 40L15 140V140C23.2843 140 30 133.284 30 125L30 55C30 46.7157 23.2843 40 15 40V40Z" fill="#FF9900"/>
<path d="M385 250V150V150C376.716 150 370 156.716 370 165V235C370 243.284 376.716 250 385 250V250Z" fill="#FF0000"/>
<path d="M15 150L15 250V250C23.2843 250 30 243.284 30 235L30 165C30 156.716 23.2843 150 15 150V150Z" fill="#FF9900"/>
<path d="M385 360V260V260C376.716 260 370 266.716 370 275V345C370 353.284 376.716 360 385 360V360Z" fill="#FF0000"/>
<path d="M15 260L15 360V360C23.2843 360 30 353.284 30 345L30 275C30 266.716 23.2843 260 15 260V260Z" fill="#FF0000"/>
<path d="M250 15H150V15C150 23.2843 156.716 30 165 30H235C243.284 30 250 23.2843 250 15V15Z" fill="#00FF1A"/>
<path d="M150 385H250V385C250 376.716 243.284 370 235 370H165C156.716 370 150 376.716 150 385V385Z" fill="#00A3FF"/>
<path d="M140 15H40V15C40 23.2843 46.7157 30 55 30H125C133.284 30 140 23.2843 140 15V15Z" fill="#00A3FF"/>
<path d="M40 385H140V385C140 376.716 133.284 370 125 370H55C46.7157 370 40 376.716 40 385V385Z" fill="#00A3FF"/>
<rect width="100" height="100" rx="16" transform="matrix(-1 0 0 1 250 150)" fill="#FFFF00"/>
<rect width="100" height="100" rx="16" transform="matrix(-1 0 0 1 250 40)" fill="#FFFF00"/>
<rect width="100" height="100" rx="16" transform="matrix(-1 0 0 1 140 150)" fill="#FFFF00"/>
<rect width="100" height="100" rx="16" transform="matrix(-1 0 0 1 140 40)" fill="#FFFF00"/>
<rect width="100" height="100" rx="16" transform="matrix(-1 0 0 1 360 260)" fill="#FFFF00"/>
<rect width="100" height="100" rx="16" transform="matrix(-1 0 0 1 250 260)" fill="#FFFF00"/>
<rect width="100" height="100" rx="16" transform="matrix(-1 0 0 1 140 260)" fill="#FFFF00"/>
<path d="M312.121 197.879C313.293 199.05 313.293 200.95 312.121 202.121L293.029 221.213C291.858 222.385 289.958 222.385 288.787 221.213C287.615 220.042 287.615 218.142 288.787 216.971L305.757 200L288.787 183.029C287.615 181.858 287.615 179.958 288.787 178.787C289.958 177.615 291.858 177.615 293.029 178.787L312.121 197.879ZM87.8787 202.121C86.7071 200.95 86.7071 199.05 87.8787 197.879L106.971 178.787C108.142 177.615 110.042 177.615 111.213 178.787C112.385 179.958 112.385 181.858 111.213 183.029L94.2426 200L111.213 216.971C112.385 218.142 112.385 220.042 111.213 221.213C110.042 222.385 108.142 222.385 106.971 221.213L87.8787 202.121ZM310 203L90 203V197L310 197V203Z" fill="black"/>
<path d="M313 310C313 311.657 311.657 313 310 313H283C281.343 313 280 311.657 280 310C280 308.343 281.343 307 283 307H307V283C307 281.343 308.343 280 310 280C311.657 280 313 281.343 313 283V310ZM87 90C87 88.3431 88.3431 87 90 87H117C118.657 87 120 88.3431 120 90C120 91.6569 118.657 93 117 93L93 93L93 117C93 118.657 91.6569 120 90 120C88.3431 120 87 118.657 87 117V90ZM307.879 312.121L87.8787 92.1213L92.1213 87.8787L312.121 307.879L307.879 312.121Z" fill="black"/>
</svg>
