<svg width="400" height="400" viewBox="0 0 400 400" fill="none" xmlns="http://www.w3.org/2000/svg">
<rect x="0.000976562" y="400.001" width="400" height="400" rx="16" transform="matrix(0 -1 1 0 -400 400.002)" fill="black"/>
<rect x="150.001" y="360.001" width="100" height="100" rx="16" transform="rotate(-90 150.001 360.001)" fill="#FFFF00"/>
<rect x="40.001" y="360.001" width="100" height="100" rx="16" transform="rotate(-90 40.001 360.001)" fill="#FFFF00"/>
<path d="M15.001 360.001L15.001 260.001C23.2852 260.001 30.001 266.717 30.001 275.001L30.001 345.001C30.001 353.285 23.2852 360.001 15.001 360.001Z" fill="#00FF1A"/>
<path d="M385.001 260.001V360.001C376.717 360.001 370.001 353.285 370.001 345.001V275.001C370.001 266.717 376.717 260.001 385.001 260.001Z" fill="#00A3FF"/>
<path d="M140.001 385.001H40.001C40.001 376.717 46.7167 370.001 55.001 370.001H125.001C133.285 370.001 140.001 376.717 140.001 385.001Z" fill="#FF9900"/>
<path d="M40.001 15.001L140.001 15.001C140.001 23.2852 133.285 30.001 125.001 30.001L55.001 30.001C46.7167 30.001 40.001 23.2852 40.001 15.001Z" fill="#00A3FF"/>
<path d="M250.001 385.001H150.001C150.001 376.717 156.717 370.001 165.001 370.001H235.001C243.285 370.001 250.001 376.717 250.001 385.001Z" fill="#00A3FF"/>
<path d="M150.001 15.001L250.001 15.001C250.001 23.2852 243.285 30.001 235.001 30.001L165.001 30.001C156.717 30.001 150.001 23.2852 150.001 15.001Z" fill="#FF0000"/>
<path d="M360.001 385.001H260.001C260.001 376.717 266.717 370.001 275.001 370.001H345.001C353.285 370.001 360.001 376.717 360.001 385.001Z" fill="#FF9900"/>
<path d="M260.001 15.001L360.001 15.001C360.001 23.2852 353.285 30.001 345.001 30.001L275.001 30.001C266.717 30.001 260.001 23.2852 260.001 15.001Z" fill="#00FF1A"/>
<path d="M15.001 250.001L15.001 150.001C23.2852 150.001 30.001 156.717 30.001 165.001L30.001 235.001C30.001 243.285 23.2852 250.001 15.001 250.001Z" fill="#00FF1A"/>
<path d="M385.001 150.001V250.001C376.717 250.001 370.001 243.285 370.001 235.001V165.001C370.001 156.717 376.717 150.001 385.001 150.001Z" fill="#FF9900"/>
<path d="M15.001 140.001L15.001 40.001C23.2852 40.001 30.001 46.7167 30.001 55.001L30.001 125.001C30.001 133.285 23.2852 140.001 15.001 140.001Z" fill="#FF0000"/>
<path d="M385.001 40.001V140.001C376.717 140.001 370.001 133.285 370.001 125.001V55.001C370.001 46.7167 376.717 40.001 385.001 40.001Z" fill="#FF0000"/>
<rect x="150.001" y="250.001" width="100" height="100" rx="16" transform="rotate(-90 150.001 250.001)" fill="#FFFF00"/>
<rect x="40.001" y="250.001" width="100" height="100" rx="16" transform="rotate(-90 40.001 250.001)" fill="#FFFF00"/>
<rect x="150.001" y="140.001" width="100" height="100" rx="16" transform="rotate(-90 150.001 140.001)" fill="#FFFF00"/>
<rect x="40.001" y="140.001" width="100" height="100" rx="16" transform="rotate(-90 40.001 140.001)" fill="#FFFF00"/>
<rect x="260.001" y="360.001" width="100" height="100" rx="16" transform="rotate(-90 260.001 360.001)" fill="#FFFF00"/>
<rect x="260.001" y="250.001" width="100" height="100" rx="16" transform="rotate(-90 260.001 250.001)" fill="#FFFF00"/>
<rect x="260.001" y="140.001" width="100" height="100" rx="16" transform="rotate(-90 260.001 140.001)" fill="#FFFF00"/>
<path d="M87.8787 87.8787C86.7071 89.0503 86.7071 90.9497 87.8787 92.1213L106.971 111.213C108.142 112.385 110.042 112.385 111.213 111.213C112.385 110.042 112.385 108.142 111.213 106.971L94.2426 90L111.213 73.0294C112.385 71.8579 112.385 69.9584 111.213 68.7868C110.042 67.6152 108.142 67.6152 106.971 68.7868L87.8787 87.8787ZM312.121 92.1213C313.293 90.9497 313.293 89.0503 312.121 87.8787L293.029 68.7868C291.858 67.6152 289.958 67.6152 288.787 68.7868C287.615 69.9584 287.615 71.8579 288.787 73.0294L305.757 90L288.787 106.971C287.615 108.142 287.615 110.042 288.787 111.213C289.958 112.385 291.858 112.385 293.029 111.213L312.121 92.1213ZM90 93H310V87H90V93Z" fill="black"/>
<path d="M197 310C197 311.657 198.343 313 200 313H227C228.657 313 230 311.657 230 310C230 308.343 228.657 307 227 307H203V283C203 281.343 201.657 280 200 280C198.343 280 197 281.343 197 283V310ZM313 200C313 198.343 311.657 197 310 197H283C281.343 197 280 198.343 280 200C280 201.657 281.343 203 283 203L307 203L307 227C307 228.657 308.343 230 310 230C311.657 230 313 228.657 313 227V200ZM202.121 312.121L312.121 202.121L307.879 197.879L197.879 307.879L202.121 312.121Z" fill="black"/>
</svg>
