<svg width="400" height="400" viewBox="0 0 400 400" fill="none" xmlns="http://www.w3.org/2000/svg">
<rect x="0.000976562" y="0.000976562" width="400" height="400" rx="16" fill="black"/>
<rect x="40.001" y="150.001" width="100" height="100" rx="16" fill="#FFFF00"/>
<rect x="40.001" y="40.001" width="100" height="100" rx="16" fill="#FFFF00"/>
<path d="M40.001 15.001L140.001 15.001C140.001 23.2852 133.285 30.001 125.001 30.001L55.001 30.001C46.7167 30.001 40.001 23.2852 40.001 15.001Z" fill="#00FF1A"/>
<path d="M140.001 385.001H40.001C40.001 376.717 46.7167 370.001 55.001 370.001H125.001C133.285 370.001 140.001 376.717 140.001 385.001Z" fill="#00A3FF"/>
<path d="M15.001 140.001L15.001 40.001C23.2852 40.001 30.001 46.7167 30.001 55.001L30.001 125.001C30.001 133.285 23.2852 140.001 15.001 140.001Z" fill="#FF9900"/>
<path d="M385.001 40.001V140.001C376.717 140.001 370.001 133.285 370.001 125.001V55.001C370.001 46.7167 376.717 40.001 385.001 40.001Z" fill="#00A3FF"/>
<path d="M15.001 250.001L15.001 150.001C23.2852 150.001 30.001 156.717 30.001 165.001L30.001 235.001C30.001 243.285 23.2852 250.001 15.001 250.001Z" fill="#FF0000"/>
<path d="M385.001 150.001V250.001C376.717 250.001 370.001 243.285 370.001 235.001V165.001C370.001 156.717 376.717 150.001 385.001 150.001Z" fill="#FF9900"/>
<path d="M15.001 360.001L15.001 260.001C23.2852 260.001 30.001 266.717 30.001 275.001L30.001 345.001C30.001 353.285 23.2852 360.001 15.001 360.001Z" fill="#FF9900"/>
<path d="M385.001 260.001V360.001C376.717 360.001 370.001 353.285 370.001 345.001V275.001C370.001 266.717 376.717 260.001 385.001 260.001Z" fill="#00FF1A"/>
<path d="M150.001 15.001L250.001 15.001C250.001 23.2852 243.285 30.001 235.001 30.001L165.001 30.001C156.717 30.001 150.001 23.2852 150.001 15.001Z" fill="#00FF1A"/>
<path d="M250.001 385.001H150.001C150.001 376.717 156.717 370.001 165.001 370.001H235.001C243.285 370.001 250.001 376.717 250.001 385.001Z" fill="#00A3FF"/>
<path d="M260.001 15.001L360.001 15.001C360.001 23.2852 353.285 30.001 345.001 30.001L275.001 30.001C266.717 30.001 260.001 23.2852 260.001 15.001Z" fill="#FF0000"/>
<path d="M360.001 385.001H260.001C260.001 376.717 266.717 370.001 275.001 370.001H345.001C353.285 370.001 360.001 376.717 360.001 385.001Z" fill="#FF0000"/>
<rect x="150.001" y="150.001" width="100" height="100" rx="16" fill="#FFFF00"/>
<rect x="150.001" y="40.001" width="100" height="100" rx="16" fill="#FFFF00"/>
<rect x="260.001" y="150.001" width="100" height="100" rx="16" fill="#FFFF00"/>
<rect x="260.001" y="40.001" width="100" height="100" rx="16" fill="#FFFF00"/>
<rect x="40.001" y="260.001" width="100" height="100" rx="16" fill="#FFFF00"/>
<rect x="150.001" y="260.001" width="100" height="100" rx="16" fill="#FFFF00"/>
<rect x="260.001" y="260.001" width="100" height="100" rx="16" fill="#FFFF00"/>
<path d="M87.8787 197.879C86.7071 199.05 86.7071 200.95 87.8787 202.121L106.971 221.213C108.142 222.385 110.042 222.385 111.213 221.213C112.385 220.042 112.385 218.142 111.213 216.971L94.2426 200L111.213 183.029C112.385 181.858 112.385 179.958 111.213 178.787C110.042 177.615 108.142 177.615 106.971 178.787L87.8787 197.879ZM302.121 202.121C303.293 200.95 303.293 199.05 302.121 197.879L283.029 178.787C281.858 177.615 279.958 177.615 278.787 178.787C277.615 179.958 277.615 181.858 278.787 183.029L295.757 200L278.787 216.971C277.615 218.142 277.615 220.042 278.787 221.213C279.958 222.385 281.858 222.385 283.029 221.213L302.121 202.121ZM90 203L300 203V197L90 197V203Z" fill="black"/>
<path d="M312.121 87.8787C310.95 86.7071 309.05 86.7071 307.879 87.8787L288.787 106.971C287.615 108.142 287.615 110.042 288.787 111.213C289.958 112.385 291.858 112.385 293.029 111.213L310 94.2426L326.971 111.213C328.142 112.385 330.042 112.385 331.213 111.213C332.385 110.042 332.385 108.142 331.213 106.971L312.121 87.8787ZM307.879 312.121C309.05 313.293 310.95 313.293 312.121 312.121L331.213 293.029C332.385 291.858 332.385 289.958 331.213 288.787C330.042 287.615 328.142 287.615 326.971 288.787L310 305.757L293.029 288.787C291.858 287.615 289.958 287.615 288.787 288.787C287.615 289.958 287.615 291.858 288.787 293.029L307.879 312.121ZM307 90V310H313V90H307Z" fill="black"/>
</svg>
