<svg width="400" height="400" viewBox="0 0 400 400" fill="none" xmlns="http://www.w3.org/2000/svg">
<rect width="400" height="400" rx="16" fill="black"/>
<rect x="40" y="150" width="100" height="100" rx="16" fill="#FFFF00"/>
<rect x="40" y="40" width="100" height="100" rx="16" fill="#FFFF00"/>
<path d="M40 15H140V15C140 23.2843 133.284 30 125 30H55C46.7157 30 40 23.2843 40 15V15Z" fill="#00FF1A"/>
<path d="M140 385H40V385C40 376.716 46.7157 370 55 370H125C133.284 370 140 376.716 140 385V385Z" fill="#00A3FF"/>
<path d="M15 140L15 40V40C23.2843 40 30 46.7157 30 55L30 125C30 133.284 23.2843 140 15 140V140Z" fill="#FF9900"/>
<path d="M385 40V140V140C376.716 140 370 133.284 370 125V55C370 46.7157 376.716 40 385 40V40Z" fill="#FF0000"/>
<path d="M15 250L15 150V150C23.2843 150 30 156.716 30 165L30 235C30 243.284 23.2843 250 15 250V250Z" fill="#00A3FF"/>
<path d="M385 150V250V250C376.716 250 370 243.284 370 235V165C370 156.716 376.716 150 385 150V150Z" fill="#FF9900"/>
<path d="M15 360L15 260V260C23.2843 260 30 266.716 30 275L30 345C30 353.284 23.2843 360 15 360V360Z" fill="#FF9900"/>
<path d="M385 260V360V360C376.716 360 370 353.284 370 345V275C370 266.716 376.716 260 385 260V260Z" fill="#FF0000"/>
<path d="M150 15H250V15C250 23.2843 243.284 30 235 30H165C156.716 30 150 23.2843 150 15V15Z" fill="#00FF1A"/>
<path d="M250 385H150V385C150 376.716 156.716 370 165 370H235C243.284 370 250 376.716 250 385V385Z" fill="#FF0000"/>
<path d="M260 15H360V15C360 23.2843 353.284 30 345 30H275C266.716 30 260 23.2843 260 15V15Z" fill="#00FF1A"/>
<path d="M360 385H260V385C260 376.716 266.716 370 275 370H345C353.284 370 360 376.716 360 385V385Z" fill="#00A3FF"/>
<rect x="150" y="150" width="100" height="100" rx="16" fill="#FFFF00"/>
<rect x="150" y="40" width="100" height="100" rx="16" fill="#FFFF00"/>
<rect x="260" y="150" width="100" height="100" rx="16" fill="#FFFF00"/>
<rect x="260" y="40" width="100" height="100" rx="16" fill="#FFFF00"/>
<rect x="40" y="260" width="100" height="100" rx="16" fill="#FFFF00"/>
<rect x="150" y="260" width="100" height="100" rx="16" fill="#FFFF00"/>
<rect x="260" y="260" width="100" height="100" rx="16" fill="#FFFF00"/>
<path d="M107.879 197.879C106.707 199.05 106.707 200.95 107.879 202.121L126.971 221.213C128.142 222.385 130.042 222.385 131.213 221.213C132.385 220.042 132.385 218.142 131.213 216.971L114.243 200L131.213 183.029C132.385 181.858 132.385 179.958 131.213 178.787C130.042 177.615 128.142 177.615 126.971 178.787L107.879 197.879ZM310 197L110 197V203L310 203V197Z" fill="black"/>
<path d="M183.338 296.338C184.995 296.338 186.338 294.995 186.338 293.338V266.338C186.338 264.681 184.995 263.338 183.338 263.338C181.681 263.338 180.338 264.681 180.338 266.338V290.338H156.338C154.681 290.338 153.338 291.681 153.338 293.338C153.338 294.995 154.681 296.338 156.338 296.338H183.338ZM87.8787 202.121L181.217 295.459L185.459 291.217L92.1213 197.879L87.8787 202.121Z" fill="black"/>
<path d="M296.338 218C296.338 216.343 294.995 215 293.338 215H266.338C264.681 215 263.338 216.343 263.338 218C263.338 219.657 264.681 221 266.338 221H290.338V245C290.338 246.657 291.681 248 293.338 248C294.995 248 296.338 246.657 296.338 245V218ZM202.121 313.459L295.459 220.121L291.217 215.879L197.879 309.217L202.121 313.459Z" fill="black"/>
</svg>
