<svg width="400" height="400" viewBox="0 0 400 400" fill="none" xmlns="http://www.w3.org/2000/svg">
<rect width="400" height="400" rx="16" fill="black"/>
<rect x="40" y="150" width="100" height="100" rx="16" fill="#FFFF00"/>
<rect x="40" y="40" width="100" height="100" rx="16" fill="#FFFF00"/>
<path d="M40 15H140V15C140 23.2843 133.284 30 125 30H55C46.7157 30 40 23.2843 40 15V15Z" fill="#00FF1A"/>
<path d="M140 385H40V385C40 376.716 46.7157 370 55 370H125C133.284 370 140 376.716 140 385V385Z" fill="#00A3FF"/>
<path d="M15 140L15 40V40C23.2843 40 30 46.7157 30 55L30 125C30 133.284 23.2843 140 15 140V140Z" fill="#FF9900"/>
<path d="M385 40V140V140C376.716 140 370 133.284 370 125V55C370 46.7157 376.716 40 385 40V40Z" fill="#FF0000"/>
<path d="M15 250L15 150V150C23.2843 150 30 156.716 30 165L30 235C30 243.284 23.2843 250 15 250V250Z" fill="#FF0000"/>
<path d="M385 150V250V250C376.716 250 370 243.284 370 235V165C370 156.716 376.716 150 385 150V150Z" fill="#00A3FF"/>
<path d="M15 360L15 260V260C23.2843 260 30 266.716 30 275L30 345C30 353.284 23.2843 360 15 360V360Z" fill="#FF9900"/>
<path d="M385 260V360V360C376.716 360 370 353.284 370 345V275C370 266.716 376.716 260 385 260V260Z" fill="#FF0000"/>
<path d="M150 15H250V15C250 23.2843 243.284 30 235 30H165C156.716 30 150 23.2843 150 15V15Z" fill="#00FF1A"/>
<path d="M250 385H150V385C150 376.716 156.716 370 165 370H235C243.284 370 250 376.716 250 385V385Z" fill="#FF9900"/>
<path d="M260 15H360V15C360 23.2843 353.284 30 345 30H275C266.716 30 260 23.2843 260 15V15Z" fill="#00FF1A"/>
<path d="M360 385H260V385C260 376.716 266.716 370 275 370H345C353.284 370 360 376.716 360 385V385Z" fill="#00A3FF"/>
<rect x="150" y="150" width="100" height="100" rx="16" fill="#FFFF00"/>
<rect x="150" y="40" width="100" height="100" rx="16" fill="#FFFF00"/>
<rect x="260" y="150" width="100" height="100" rx="16" fill="#FFFF00"/>
<rect x="260" y="40" width="100" height="100" rx="16" fill="#FFFF00"/>
<rect x="40" y="260" width="100" height="100" rx="16" fill="#FFFF00"/>
<rect x="150" y="260" width="100" height="100" rx="16" fill="#FFFF00"/>
<rect x="260" y="260" width="100" height="100" rx="16" fill="#FFFF00"/>
<path d="M292.121 202.121C293.293 200.95 293.293 199.05 292.121 197.879L273.029 178.787C271.858 177.615 269.958 177.615 268.787 178.787C267.615 179.958 267.615 181.858 268.787 183.029L285.757 200L268.787 216.971C267.615 218.142 267.615 220.042 268.787 221.213C269.958 222.385 271.858 222.385 273.029 221.213L292.121 202.121ZM90 203H290V197H90V203Z" fill="black"/>
<path d="M213.662 293.338C213.662 294.995 215.005 296.338 216.662 296.338H243.662C245.319 296.338 246.662 294.995 246.662 293.338C246.662 291.681 245.319 290.338 243.662 290.338H219.662V266.338C219.662 264.681 218.319 263.338 216.662 263.338C215.005 263.338 213.662 264.681 213.662 266.338V293.338ZM307.879 197.879L214.541 291.217L218.783 295.459L312.121 202.121L307.879 197.879Z" fill="black"/>
<path d="M105.374 214.926C103.718 214.948 102.393 216.31 102.415 217.966L102.778 244.964C102.801 246.621 104.162 247.945 105.818 247.923C107.475 247.901 108.8 246.54 108.778 244.883L108.455 220.885L132.453 220.562C134.109 220.54 135.434 219.179 135.412 217.522C135.39 215.866 134.029 214.541 132.372 214.563L105.374 214.926ZM202.093 307.85L107.507 215.776L103.322 220.076L197.907 312.15L202.093 307.85Z" fill="black"/>
</svg>
