<svg width="400" height="400" viewBox="0 0 400 400" fill="none" xmlns="http://www.w3.org/2000/svg">
<rect width="400" height="400" rx="16" fill="black"/>
<rect x="40" y="150" width="100" height="100" rx="16" fill="#FFFF00"/>
<rect x="40" y="40" width="100" height="100" rx="16" fill="#FFFF00"/>
<path d="M40 15H140V15C140 23.2843 133.284 30 125 30H55C46.7157 30 40 23.2843 40 15V15Z" fill="#00A3FF"/>
<path d="M140 385H40V385C40 376.716 46.7157 370 55 370H125C133.284 370 140 376.716 140 385V385Z" fill="#00A3FF"/>
<path d="M15 140L15 40V40C23.2843 40 30 46.7157 30 55L30 125C30 133.284 23.2843 140 15 140V140Z" fill="#FF0000"/>
<path d="M385 40V140V140C376.716 140 370 133.284 370 125V55C370 46.7157 376.716 40 385 40V40Z" fill="#FF0000"/>
<path d="M15 250L15 150V150C23.2843 150 30 156.716 30 165L30 235C30 243.284 23.2843 250 15 250V250Z" fill="#FF9900"/>
<path d="M385 150V250V250C376.716 250 370 243.284 370 235V165C370 156.716 376.716 150 385 150V150Z" fill="#00FF1A"/>
<path d="M15 360L15 260V260C23.2843 260 30 266.716 30 275L30 345C30 353.284 23.2843 360 15 360V360Z" fill="#FF9900"/>
<path d="M385 260V360V360C376.716 360 370 353.284 370 345V275C370 266.716 376.716 260 385 260V260Z" fill="#FF9900"/>
<path d="M150 15H250V15C250 23.2843 243.284 30 235 30H165C156.716 30 150 23.2843 150 15V15Z" fill="#FF0000"/>
<path d="M250 385H150V385C150 376.716 156.716 370 165 370H235C243.284 370 250 376.716 250 385V385Z" fill="#00A3FF"/>
<path d="M260 15H360V15C360 23.2843 353.284 30 345 30H275C266.716 30 260 23.2843 260 15V15Z" fill="#00FF1A"/>
<path d="M360 385H260V385C260 376.716 266.716 370 275 370H345C353.284 370 360 376.716 360 385V385Z" fill="#00FF1A"/>
<rect x="150" y="150" width="100" height="100" rx="16" fill="#FFFF00"/>
<rect x="150" y="40" width="100" height="100" rx="16" fill="#FFFF00"/>
<rect x="260" y="150" width="100" height="100" rx="16" fill="#FFFF00"/>
<rect x="260" y="40" width="100" height="100" rx="16" fill="#FFFF00"/>
<rect x="40" y="260" width="100" height="100" rx="16" fill="#FFFF00"/>
<rect x="150" y="260" width="100" height="100" rx="16" fill="#FFFF00"/>
<rect x="260" y="260" width="100" height="100" rx="16" fill="#FFFF00"/>
<path d="M90 88C88.3431 88 87 89.3431 87 91V118C87 119.657 88.3431 121 90 121C91.6569 121 93 119.657 93 118V94H117C118.657 94 120 92.6569 120 91C120 89.3431 118.657 88 117 88H90ZM291.525 295.525C293.182 295.525 294.525 294.182 294.525 292.525V265.525C294.525 263.869 293.182 262.525 291.525 262.525C289.869 262.525 288.525 263.869 288.525 265.525V289.525H264.525C262.869 289.525 261.525 290.869 261.525 292.525C261.525 294.182 262.869 295.525 264.525 295.525H291.525ZM87.8787 93.1213L289.404 294.647L293.647 290.404L92.1213 88.8787L87.8787 93.1213Z" fill="black"/>
<path d="M200 87C198.343 87 197 88.3431 197 90V117C197 118.657 198.343 120 200 120C201.657 120 203 118.657 203 117V93H227C228.657 93 230 91.6569 230 90C230 88.3431 228.657 87 227 87H200ZM310 203C311.657 203 313 201.657 313 200V173C313 171.343 311.657 170 310 170C308.343 170 307 171.343 307 173L307 197L283 197C281.343 197 280 198.343 280 200C280 201.657 281.343 203 283 203H310ZM197.879 92.1213L307.879 202.121L312.121 197.879L202.121 87.8787L197.879 92.1213Z" fill="black"/>
</svg>
