<svg width="400" height="400" viewBox="0 0 400 400" fill="none" xmlns="http://www.w3.org/2000/svg">
<rect x="-0.000976562" y="0.000488281" width="400" height="400" rx="16" fill="black"/>
<rect x="39.999" y="150" width="100" height="100" rx="16" fill="#FFFF00"/>
<rect x="39.999" y="40.0005" width="100" height="100" rx="16" fill="#FFFF00"/>
<path d="M39.999 15.0005L139.999 15.0005C139.999 23.2848 133.283 30.0005 124.999 30.0005L54.999 30.0005C46.7148 30.0005 39.999 23.2848 39.999 15.0005Z" fill="#00A3FF"/>
<path d="M139.999 385H39.999C39.999 376.716 46.7147 370 54.999 370H124.999C133.283 370 139.999 376.716 139.999 385Z" fill="#00A3FF"/>
<path d="M14.999 140L14.999 40.0005C23.2833 40.0005 29.999 46.7162 29.999 55.0005V125C29.999 133.285 23.2833 140 14.999 140Z" fill="#FF0000"/>
<path d="M384.999 40.0005V140.001C376.715 140.001 369.999 133.285 369.999 125V55.0005C369.999 46.7162 376.715 40.0005 384.999 40.0005Z" fill="#FF0000"/>
<path d="M14.999 250L14.999 150C23.2833 150 29.999 156.716 29.999 165V235C29.999 243.285 23.2833 250 14.999 250Z" fill="#00FF1A"/>
<path d="M384.999 150V250.001C376.715 250.001 369.999 243.285 369.999 235V165C369.999 156.716 376.715 150 384.999 150Z" fill="#FF0000"/>
<path d="M14.999 360L14.999 260C23.2833 260 29.999 266.716 29.999 275V345C29.999 353.285 23.2833 360 14.999 360Z" fill="#FF9900"/>
<path d="M384.999 260V360.001C376.715 360.001 369.999 353.285 369.999 345V275C369.999 266.716 376.715 260 384.999 260Z" fill="#FF9900"/>
<path d="M149.999 15.0005L249.999 15.0005C249.999 23.2848 243.283 30.0005 234.999 30.0005L164.999 30.0005C156.715 30.0005 149.999 23.2848 149.999 15.0005Z" fill="#FF9900"/>
<path d="M249.999 385H149.999C149.999 376.716 156.715 370 164.999 370H234.999C243.283 370 249.999 376.716 249.999 385Z" fill="#00A3FF"/>
<path d="M259.999 15.0005L359.999 15.0005C359.999 23.2848 353.283 30.0005 344.999 30.0005L274.999 30.0005C266.715 30.0005 259.999 23.2848 259.999 15.0005Z" fill="#00FF1A"/>
<path d="M359.999 385H259.999C259.999 376.716 266.715 370 274.999 370H344.999C353.283 370 359.999 376.716 359.999 385Z" fill="#00FF1A"/>
<rect x="149.999" y="150" width="100" height="100" rx="16" fill="#FFFF00"/>
<rect x="149.999" y="40.0005" width="100" height="100" rx="16" fill="#FFFF00"/>
<rect x="259.999" y="150" width="100" height="100" rx="16" fill="#FFFF00"/>
<rect x="259.999" y="40.0005" width="100" height="100" rx="16" fill="#FFFF00"/>
<rect x="39.999" y="260" width="100" height="100" rx="16" fill="#FFFF00"/>
<rect x="149.999" y="260" width="100" height="100" rx="16" fill="#FFFF00"/>
<rect x="259.999" y="260" width="100" height="100" rx="16" fill="#FFFF00"/>
<path d="M90 87C88.3431 87 87 88.3431 87 90V117C87 118.657 88.3431 120 90 120C91.6569 120 93 118.657 93 117V93H117C118.657 93 120 91.6569 120 90C120 88.3431 118.657 87 117 87H90ZM310 313C311.657 313 313 311.657 313 310V283C313 281.343 311.657 280 310 280C308.343 280 307 281.343 307 283V307H283C281.343 307 280 308.343 280 310C280 311.657 281.343 313 283 313H310ZM87.8787 92.1213L307.879 312.121L312.121 307.879L92.1213 87.8787L87.8787 92.1213Z" fill="black"/>
<path d="M87 200C87 201.657 88.3431 203 90 203H117C118.657 203 120 201.657 120 200C120 198.343 118.657 197 117 197H93V173C93 171.343 91.6569 170 90 170C88.3431 170 87 171.343 87 173V200ZM203 90C203 88.3431 201.657 87 200 87H173C171.343 87 170 88.3431 170 90C170 91.6569 171.343 93 173 93L197 93L197 117C197 118.657 198.343 120 200 120C201.657 120 203 118.657 203 117V90ZM92.1213 202.121L202.121 92.1213L197.879 87.8787L87.8787 197.879L92.1213 202.121Z" fill="black"/>
</svg>
