<svg width="400" height="400" viewBox="0 0 400 400" fill="none" xmlns="http://www.w3.org/2000/svg">
<rect width="400" height="400" rx="16" fill="black"/>
<rect x="40" y="150" width="100" height="100" rx="16" fill="#FFFF00"/>
<rect x="40" y="40" width="100" height="100" rx="16" fill="#FFFF00"/>
<path d="M40 15H140V15C140 23.2843 133.284 30 125 30H55C46.7157 30 40 23.2843 40 15V15Z" fill="#00FF1A"/>
<path d="M140 385H40V385C40 376.716 46.7157 370 55 370H125C133.284 370 140 376.716 140 385V385Z" fill="#00A3FF"/>
<path d="M15 140L15 40V40C23.2843 40 30 46.7157 30 55L30 125C30 133.284 23.2843 140 15 140V140Z" fill="#FF9900"/>
<path d="M385 40V140V140C376.716 140 370 133.284 370 125V55C370 46.7157 376.716 40 385 40V40Z" fill="#FF0000"/>
<path d="M15 250L15 150V150C23.2843 150 30 156.716 30 165L30 235C30 243.284 23.2843 250 15 250V250Z" fill="#00FF1A"/>
<path d="M385 150V250V250C376.716 250 370 243.284 370 235V165C370 156.716 376.716 150 385 150V150Z" fill="#00A3FF"/>
<path d="M15 360L15 260V260C23.2843 260 30 266.716 30 275L30 345C30 353.284 23.2843 360 15 360V360Z" fill="#FF9900"/>
<path d="M385 260V360V360C376.716 360 370 353.284 370 345V275C370 266.716 376.716 260 385 260V260Z" fill="#FF0000"/>
<path d="M150 15H250V15C250 23.2843 243.284 30 235 30H165C156.716 30 150 23.2843 150 15V15Z" fill="#FF9900"/>
<path d="M250 385H150V385C150 376.716 156.716 370 165 370H235C243.284 370 250 376.716 250 385V385Z" fill="#FF0000"/>
<path d="M260 15H360V15C360 23.2843 353.284 30 345 30H275C266.716 30 260 23.2843 260 15V15Z" fill="#00FF1A"/>
<path d="M360 385H260V385C260 376.716 266.716 370 275 370H345C353.284 370 360 376.716 360 385V385Z" fill="#00A3FF"/>
<rect x="150" y="150" width="100" height="100" rx="16" fill="#FFFF00"/>
<rect x="150" y="40" width="100" height="100" rx="16" fill="#FFFF00"/>
<rect x="260" y="150" width="100" height="100" rx="16" fill="#FFFF00"/>
<rect x="260" y="40" width="100" height="100" rx="16" fill="#FFFF00"/>
<rect x="40" y="260" width="100" height="100" rx="16" fill="#FFFF00"/>
<rect x="150" y="260" width="100" height="100" rx="16" fill="#FFFF00"/>
<rect x="260" y="260" width="100" height="100" rx="16" fill="#FFFF00"/>
<path d="M197 310C197 311.657 198.343 313 200 313H227C228.657 313 230 311.657 230 310C230 308.343 228.657 307 227 307H203V283C203 281.343 201.657 280 200 280C198.343 280 197 281.343 197 283V310ZM313 200C313 198.343 311.657 197 310 197H283C281.343 197 280 198.343 280 200C280 201.657 281.343 203 283 203L307 203L307 227C307 228.657 308.343 230 310 230C311.657 230 313 228.657 313 227V200ZM202.121 312.121L312.121 202.121L307.879 197.879L197.879 307.879L202.121 312.121Z" fill="black"/>
<path d="M87.0028 210.13C87.0748 211.786 88.475 213.069 90.1303 212.997L117.105 211.824C118.76 211.752 120.044 210.352 119.972 208.697C119.9 207.042 118.499 205.758 116.844 205.83L92.8669 206.873L91.8244 182.895C91.7524 181.24 90.3522 179.956 88.6969 180.028C87.0416 180.1 85.7581 181.501 85.83 183.156L87.0028 210.13ZM202.997 89.8697C202.925 88.2144 201.525 86.9309 199.87 87.0028L172.895 88.1756C171.24 88.2476 169.956 89.6478 170.028 91.3031C170.1 92.9584 171.501 94.2419 173.156 94.17L197.133 93.1275L198.176 117.105C198.248 118.76 199.648 120.044 201.303 119.972C202.958 119.9 204.242 118.499 204.17 116.844L202.997 89.8697ZM92.2115 212.027L202.211 92.0272L197.789 87.9728L87.7885 207.973L92.2115 212.027Z" fill="black"/>
</svg>
