<svg width="400" height="400" viewBox="0 0 400 400" fill="none" xmlns="http://www.w3.org/2000/svg">
<rect x="400" width="400" height="400" rx="16" transform="rotate(90 400 0)" fill="black"/>
<rect x="250" y="40" width="100" height="100" rx="16" transform="rotate(90 250 40)" fill="#FFFF00"/>
<rect x="360" y="40" width="100" height="100" rx="16" transform="rotate(90 360 40)" fill="#606060"/>
<path d="M385 40V140C376.716 140 370 133.284 370 125V55C370 46.7157 376.716 40 385 40Z" fill="#FFFF00"/>
<path d="M15 140L15 40C23.2843 40 30 46.7157 30 55L30 125C30 133.284 23.2843 140 15 140Z" fill="#FFFF00"/>
<path d="M260 15L360 15C360 23.2843 353.284 30 345 30L275 30C266.716 30 260 23.2843 260 15Z" fill="#606060"/>
<path d="M360 385L260 385C260 376.716 266.716 370 275 370L345 370C353.284 370 360 376.716 360 385Z" fill="#606060"/>
<path d="M150 15L250 15C250 23.2843 243.284 30 235 30L165 30C156.716 30 150 23.2843 150 15Z" fill="#606060"/>
<path d="M250 385L150 385C150 376.716 156.716 370 165 370L235 370C243.284 370 250 376.716 250 385Z" fill="#FFFF00"/>
<path d="M40 15L140 15C140 23.2843 133.284 30 125 30L55 30C46.7157 30 40 23.2843 40 15Z" fill="#606060"/>
<path d="M140 385L40 385C40 376.716 46.7157 370 55 370L125 370C133.284 370 140 376.716 140 385Z" fill="#606060"/>
<path d="M385 150V250C376.716 250 370 243.284 370 235V165C370 156.716 376.716 150 385 150Z" fill="#606060"/>
<path d="M15 250L15 150C23.2843 150 30 156.716 30 165L30 235C30 243.284 23.2843 250 15 250Z" fill="#FFFF00"/>
<path d="M385 260V360C376.716 360 370 353.284 370 345V275C370 266.716 376.716 260 385 260Z" fill="#FFFF00"/>
<path d="M15 360L15 260C23.2843 260 30 266.716 30 275L30 345C30 353.284 23.2843 360 15 360Z" fill="#FFFF00"/>
<rect x="250" y="150" width="100" height="100" rx="16" transform="rotate(90 250 150)" fill="#FFFF00"/>
<rect x="360" y="150" width="100" height="100" rx="16" transform="rotate(90 360 150)" fill="#FFFF00"/>
<rect x="250" y="260" width="100" height="100" rx="16" transform="rotate(90 250 260)" fill="#606060"/>
<rect x="360" y="260" width="100" height="100" rx="16" transform="rotate(90 360 260)" fill="#606060"/>
<rect x="140" y="40" width="100" height="100" rx="16" transform="rotate(90 140 40)" fill="#606060"/>
<rect x="140" y="150" width="100" height="100" rx="16" transform="rotate(90 140 150)" fill="#606060"/>
<rect x="140" y="260" width="100" height="100" rx="16" transform="rotate(90 140 260)" fill="#606060"/>
</svg>
